<?xml version="1.0" encoding="utf-8"?>
<!-- Generator: Adobe Illustrator 24.3.0, SVG Export Plug-In . SVG Version: 6.00 Build 0)  -->
<svg version="1.1" id="Layer_1" xmlns="http://www.w3.org/2000/svg" xmlns:xlink="http://www.w3.org/1999/xlink" x="0px" y="0px"
	 viewBox="0 0 2268 1080" style="enable-background:new 0 0 2268 1080;" xml:space="preserve">
<style type="text/css">
	.st0{
		fill: #CCCCCC;
		fill-opacity: 1;
		stroke:white;
		stroke-opacity: 1;
		stroke-width:0.5;
		}
	.st1{fill:#FFFFFF;stroke:#fff;stroke-width:4;stroke-miterlimit:10;}
	.st2{fill:none;stroke:#fff;stroke-width:4;stroke-miterlimit:10;}
</style>
<g>
  <path id="bg" name="background" class="st0" d="M89 242h2103v596H89Z" />
  <path id="417" name="اتاق 417" class="st0" d="M2101 242h91v596H2101Z" />
  <path id="416" name="اتاق 416" class="st0" d="M2008.38 601h92.62v237H2008.38Z" />
  <path id="413" name="اتاق 413" class="st0" d="M1822.78 681.57h185.22v156H1822.78Z" />
  <path id="410" name="اتاق 410" class="st0" d="M1729.99 601.13h92.62v236.87H1729.99Z" />
  <path id="409" name="اتاق 409" class="st0" d="M1637.19 601.13h92.62v236.87H1637.19Z" />
  <path id="406" name="اتاق 406" class="st0" d="M1544.39 601.13h92.62v236.87H1544.39Z" />
  <path id="405" name="اتاق 405" class="st0" d="M1451.59 601.13h92.62v236.87H1451.59Z" />
  <path id="402" name="اتاق 402" class="st0" d="M1315 601.13h136.42v236.87H1315Z" />
  <path id="415" name="اتاق 415" class="st0" d="M2012.45 242h88.55v237H2012.45Z" />
  <path id="414" name="اتاق 414" class="st0" d="M1923.57 242.43h88.55v156H1923.57Z" />
  <path id="412" name="اتاق 412" class="st0" d="M1834.68 242.43h88.55v156H1834.68Z" />
  <path id="411" name="اتاق 411" class="st0" d="M1745.8 242h88.55v236.87H1745.8Z" />
  <path id="408" name="اتاق 408" class="st0" d="M1656.92 242h88.55v236.87H1656.92Z" />
  <path id="407" name="اتاق 407" class="st0" d="M1568.04 242h88.55v236.87H1568.04Z" />
  <path id="404" name="اتاق 404" class="st0" d="M1479.15 242h88.55v236.87H1479.15Z" />
  <path id="403" name="اتاق 403" class="st0" d="M1390.27 242h88.55v236.87H1390.27Z" />
  <path id="401" name="اتاق 401" class="st0" d="M1242 242h147.93v237H1242Z" />
  <path id="437" name="اتاق 437" class="st0" d="M89 242h91v596H89Z" />
  <path id="436" name="اتاق 436" class="st0" d="M180 601h92.62v237H180Z" />
  <path id="434" name="اتاق 434" class="st0" d="M272.8 681.57h92.62v156H272.8Z" />
  <path id="433" name="اتاق 433" class="st0" d="M365.59 681.57h92.62v156H365.59Z" />
  <path id="429" name="اتاق 429" class="st0" d="M458.39 601.13h92.62v236.87H458.39Z" />
  <path id="428" name="اتاق 428" class="st0" d="M551.19 601.13h92.62v236.87H551.19Z" />
  <path id="425" name="اتاق 425" class="st0" d="M643.99 601.13h92.62v236.87H643.99Z" />
  <path id="424" name="اتاق 424" class="st0" d="M736.78 601.13h92.62v236.87H736.78Z" />
  <path id="421" name="اتاق 421" class="st0" d="M829.58 601.13h136.42v236.87H829.58Z" />
  <path id="418" name="اتاق 418" class="st0" d="M965.79 601.13h136.42v236.87H965.79Z" />
  <path id="435" name="اتاق 435" class="st0" d="M180 242h88.55v237H180Z" />
  <path id="432" name="اتاق 432" class="st0" d="M268.88 242.43h88.55v156H268.88Z" />
  <path id="431" name="اتاق 431" class="st0" d="M357.77 242.43h88.55v156H357.77Z" />
  <path id="430" name="اتاق 430" class="st0" d="M446.65 242h88.55v236.87H446.65Z" />
  <path id="427" name="اتاق 427" class="st0" d="M535.53 242h88.55v236.87H535.53Z" />
  <path id="426" name="اتاق 426" class="st0" d="M624.42 242h88.55v236.87H624.42Z" />
  <path id="423" name="اتاق 423" class="st0" d="M713.3 242h88.55v236.87H713.3Z" />
  <path id="422" name="اتاق 422" class="st0" d="M802.18 242h88.55v236.87H802.18Z" />
  <path id="420" name="اتاق 420" class="st0" d="M890.53 242h136v237H890.53Z" />
  <path id="419" name="اتاق 419" class="st0" d="M1026 242h136v237H1026Z" />
  <path id="stair" name="" class="st0" d="M1162 756h76v82H1162Z" />
  <path id="stair" name="" class="st0" d="M1200 644h38v111H1200Z" />
  <path id="stair" name="" class="st0" d="M1162 644h38v111H1162Z" />
  <line id="stair" name="" class="st2" x1="1162" y1="663" x2="1240" y2="663"></line>
  <line id="stair" name="" class="st2" x1="1162" y1="681.25" x2="1237" y2="681.25"></line>
  <line id="stair" name="" class="st2" x1="1162" y1="699.5" x2="1237" y2="699.5"></line>
  <line id="stair" name="" class="st2" x1="1162" y1="717.75" x2="1237" y2="717.75"></line>
  <line id="stair" name="" class="st2" x1="1161" y1="736" x2="1236" y2="736"></line>
</g>
</svg>
