<?xml version="1.0" encoding="utf-8"?>
<!-- Generator: Adobe Illustrator 24.3.0, SVG Export Plug-In . SVG Version: 6.00 Build 0)  -->
<svg version="1.1" id="Layer_1" xmlns="http://www.w3.org/2000/svg" xmlns:xlink="http://www.w3.org/1999/xlink" x="0px" y="0px"
	 viewBox="0 0 2051 1080" style="enable-background:new 0 0 2051 1080;" xml:space="preserve">
<style type="text/css">
	.st0{
		fill: #CCCCCC;
		fill-opacity: 1;
		stroke:white;
		stroke-opacity: 1;
		stroke-width:0.5;
		}
	.st1{fill:#FFFFFF;stroke:#fff;stroke-width:4;stroke-miterlimit:10;}
	.st2{fill:none;stroke:#fff;stroke-width:4;stroke-miterlimit:10;}
</style>
<g>
  <path id="bg" name="background" class="st0" d="M13 238h2025v596H13Z" />
  <path id="309" name="اتاق 309" class="st0" d="M1618.43 703h84v131H1618.43Z" />
  <path id="308" name="اتاق 308" class="st0" d="M1534 703h84v131H1534Z" />
  <path id="306" name="اتاق 306" class="st0" d="M1450 703h84v131H1450Z" />
  <path id="304" name="اتاق 304" class="st0" d="M1366 703h84v131H1366Z" />
  <path id="301" name="اتاق 301" class="st0" d="M1198 703h84v131H1198Z" />
  <path id="311" name="اتاق 311" class="st0" d="M1702 638h336v196H1702Z" />
  <path id="302" name="اتاق 302" class="st0" d="M1282 703h84v131H1282Z" />
  <path id="314" name="اتاق 314" class="st0" d="M1618.43 238h84v131H1618.43Z" />
  <path id="316" name="اتاق 316" class="st0" d="M1534 238h84v131H1534Z" />
  <path id="317" name="اتاق 317" class="st0" d="M1450 238h84v131H1450Z" />
  <path id="319" name="اتاق 319" class="st0" d="M1366 238h84v131H1366Z" />
  <path id="321" name="اتاق 321" class="st0" d="M1282 238h84v131H1282Z" />
  <path id="323" name="اتاق 323" class="st0" d="M1198 238h84v131H1198Z" />
  <path id="324" name="اتاق 324" class="st0" d="M1114 238h84v131H1114Z" />
  <path id="313" name="اتاق 313" class="st0" d="M1702 238h336v196H1702Z" />
  <path id="312" name="اتاق 312" class="st0" d="M1800 434h238v204H1800Z" />
  <path id="310" name="اتاق 310" class="st0" d="M1572 536h84v113H1572Z" />
  <path id="307" name="اتاق 307" class="st0" d="M1487 536h84v113H1487Z" />
  <path id="305" name="اتاق 305" class="st0" d="M1403 536h84v113H1403Z" />
  <path id="303" name="اتاق 303" class="st0" d="M1319 536h84v113H1319Z" />
  <path id="326" name="اتاق 326" class="st0" d="M1240 536h79v113H1240Z" />
  <path id="315" name="اتاق 315" class="st0" d="M1572 423h84v113H1572Z" />
  <path id="318" name="اتاق 318" class="st0" d="M1487 423h84v113H1487Z" />
  <path id="320" name="اتاق 320" class="st0" d="M1403 423h84v113H1403Z" />
  <path id="322" name="اتاق 322" class="st0" d="M1319 423h84v113H1319Z" />
  <path id="325" name="اتاق 325" class="st0" d="M1240 423h79v113H1240Z" />
  <path id="356" name="اتاق 356" class="st0" d="M651.58 536h146.42v113H651.58Z" />
  <path id="354" name="اتاق 354" class="st0" d="M505.26 536h146.42v113H505.26Z" />
  <path id="351" name="اتاق 351" class="st0" d="M358.9 536h146.42v113H358.9Z" />
  <path id="346" name="اتاق 346" class="st0" d="M212.27 536h146.42v113H212.27Z" />
  <path id="332" name="اتاق 332" class="st0" d="M651.58 423h146.42v113H651.58Z" />
  <path id="334" name="اتاق 334" class="st0" d="M505.26 423h146.42v113H505.26Z" />
  <path id="338" name="اتاق 338" class="st0" d="M358.9 423h146.42v113H358.9Z" />
  <path id="335" name="اتاق 335" class="st0" d="M212.27 423h146.42v113H212.27Z" />
  <path id="350" name="اتاق 350" class="st0" d="M381.57 703h84v131H381.57Z" />
  <path id="349" name="اتاق 349" class="st0" d="M298 703h84v131H298Z" />
  <path id="348" name="اتاق 348" class="st0" d="M214 703h84v131H214Z" />
  <path id="347" name="اتاق 347" class="st0" d="M130 703h84v131H130Z" />
  <path id="352" name="اتاق 352" class="st0" d="M466 703h84v131H466Z" />
  <path id="353" name="اتاق 353" class="st0" d="M550 703h84v131H550Z" />
  <path id="355" name="اتاق 355" class="st0" d="M634 703h84v131H634Z" />
  <path id="357" name="اتاق 357" class="st0" d="M718 703h84v131H718Z" />
  <path id="358" name="اتاق 358" class="st0" d="M802 703h84v131H802Z" />
  <path id="359" name="اتاق 359" class="st0" d="M885 703h84v131H885Z" />
  <path id="360" name="اتاق 360" class="st0" d="M968 703h84v131H968Z" />
  <path id="337" name="اتاق 337" class="st0" d="M381.57 238h84v131H381.57Z" />
  <path id="339" name="اتاق 339" class="st0" d="M298 238h84v131H298Z" />
  <path id="340" name="اتاق 340" class="st0" d="M214 238h84v131H214Z" />
  <path id="341" name="اتاق 341" class="st0" d="M13 238h201v131H13Z" />
  <path id="336" name="اتاق 336" class="st0" d="M466 238h84v131H466Z" />
  <path id="335" name="اتاق 335" class="st0" d="M550 238h84v131H550Z" />
  <path id="333" name="اتاق 333" class="st0" d="M634 238h84v131H634Z" />
  <path id="331" name="اتاق 331" class="st0" d="M718 238h84v131H718Z" />
  <path id="330" name="اتاق 330" class="st0" d="M802 238h84v131H802Z" />
  <path id="342" name="اتاق 342" class="st0" d="M13 368h117v466H13Z" />
  <path id="bg" name="" class="st0" d="M1052 752h76v82H1052Z" />
  <path id="bg" name="" class="st0" d="M1090 640h38v111H1090Z" />
  <path class="st0" d="M1052 640h38v111H1052Z" />
  <path id="bg" name="" class="st1" d="M1126.83,677" />
  <line id="bg" name="" class="st2" x1="1052" y1="659" x2="1130" y2="659"></line>
  <line id="bg" name="" class="st2" x1="1052" y1="677.25" x2="1127" y2="677.25"></line>
  <line id="bg" name="" class="st2" x1="1052" y1="695.5" x2="1127" y2="695.5"></line>
  <line id="bg" name="" class="st2" x1="1052" y1="713.75" x2="1127" y2="713.75"></line>
  <line id="bg" name="" class="st2" x1="1051" y1="732" x2="1126" y2="732"></line>
  <path id="329" name="اتاق 329" class="st0" d="M886 238h76v212H886Z" />
  <path id="328" name="اتاق 328" class="st0" d="M962 238h76v212H962Z" />
  <path id="327" name="اتاق 327" class="st0" d="M1038 238h76v212H1038Z" />
</g>
</svg>
