<svg viewBox="0 0 148.7 190.4" xmlns="http://www.w3.org/2000/svg" xmlns:xlink="http://www.w3.org/1999/xlink"><linearGradient id="a" gradientUnits="userSpaceOnUse" x1="482.78" x2="372.51" y1="592.94" y2="592.94"><stop offset="0" stop-color="#00acec"/><stop offset="1" stop-color="#00a071"/></linearGradient><linearGradient id="b" x1="462.64" x2="387.08" xlink:href="#a" y1="528.84" y2="528.84"/><linearGradient id="c" gradientUnits="userSpaceOnUse" x1="502.26" x2="387.31" y1="608.84" y2="608.84"><stop offset="0" stop-color="#2e3192"/><stop offset="1" stop-color="#06abe3"/></linearGradient><linearGradient id="d" x1="384.07" x2="353.57" xlink:href="#c" y1="586.48" y2="586.48"/><linearGradient id="e" x1="93.29" x2="55.4" xlink:href="#a" y1="18.95" y2="18.95"/><linearGradient id="f" gradientUnits="userSpaceOnUse" x1="480.1" x2="382.75" y1="591.93" y2="591.93"><stop offset="0" stop-color="#2e3192"/><stop offset=".55" stop-color="#1973be"/><stop offset="1" stop-color="#06abe3"/></linearGradient><linearGradient id="g" x1="481.21" x2="372.86" xlink:href="#c" y1="591.93" y2="591.93"/><g stroke-linecap="round" stroke-miterlimit="10" stroke-width="11"><g fill="none"><path d="m460.8 556a51.2 51.2 0 0 0 -54.1-7.9c-12 6-21 17-26 29-7 20 0 42 17 55 10 8 23 11 36 10 30-3 50-34 41.7-62.8" stroke="url(#a)" transform="translate(-353.6 -476.8)"/><path d="m457.1 530.5a67.6 67.6 0 0 0 -29.2-6.5 68.8 68.8 0 0 0 -29.7 6.7 60.2 60.2 0 0 0 -5.6 3" stroke="url(#b)" transform="translate(-353.6 -476.8)"/><path d="m392.8 652a67.8 67.8 0 0 0 35.1 9.7 68.8 68.8 0 0 0 58.2-105.7" stroke="url(#c)" transform="translate(-353.6 -476.8)"/><path d="m378.6 544.8a68.9 68.9 0 0 0 -9.8 83.3" stroke="url(#d)" transform="translate(-353.6 -476.8)"/><circle cx="74.3" cy="18.9" r="13.4" stroke="url(#e)"/></g><path d="m427.9 577.6a13.5 13.5 0 1 1 -13.4 13.5 13.5 13.5 0 0 1 13.4-13.5zm47.8-34.3-97.3 97.3" fill="url(#f)" stroke="url(#g)" transform="translate(-353.6 -476.8)"/></g></svg>