<svg xmlns="http://www.w3.org/2000/svg" xmlns:xlink="http://www.w3.org/1999/xlink" viewBox="0 0 148.7 190.4">
  <defs>
    <style>
      .cls-1 {
        mask: url(#mask);
      }

      .cls-2 {
        fill: url(#linear-gradient);
      }

      .cls-3 {
        filter: url(#luminosity-noclip);
      }
    </style>
    <filter id="luminosity-noclip" x="583.76" y="-8580.89" width="148.69" height="32766" filterUnits="userSpaceOnUse" color-interpolation-filters="sRGB">
      <feFlood flood-color="#fff" result="bg"/>
      <feBlend in="SourceGraphic" in2="bg"/>
    </filter>
    <mask id="mask" x="0" y="-8845.68" width="148.69" height="32766" maskUnits="userSpaceOnUse">
      <g class="cls-3"/>
    </mask>
    <linearGradient id="linear-gradient" x1="583.76" y1="359.99" x2="732.45" y2="359.99" gradientUnits="userSpaceOnUse">
      <stop offset="0" stop-color="#d71966"/>
      <stop offset="0.5" stop-color="#673494"/>
      <stop offset="0.99" stop-color="#373191"/>
    </linearGradient>
  </defs>
  <g id="Layer_1" data-name="Layer 1">
    <g class="cls-1">
      <path class="cls-2" d="M616.1,366.9v.2h0l-5.1-2.1Zm20.8-30.8,2.2,5h.2ZM713,380.7a55.9,55.9,0,0,1-7.9,28.4A54.4,54.4,0,0,1,684,429.5a51.6,51.6,0,0,1-19.6,6h-.1l-5.2.2a58.7,58.7,0,0,1-18.2-2.8,48.7,48.7,0,0,1-16.4-8.6h0l-2.2-1.8-9.9,9.9a5.3,5.3,0,0,1-7.7,0,5.4,5.4,0,0,1,0-7.8l10-10a53.9,53.9,0,0,1-12-33.8,53.4,53.4,0,0,1,3-17.6v-.2h0a65.6,65.6,0,0,1,11.3-18.3,55.8,55.8,0,0,1,17.3-13.5h.3a57.5,57.5,0,0,1,23-4.8,56.9,56.9,0,0,1,34.1,11.4L702,327.4a5.4,5.4,0,0,1,7.8,0,5.6,5.6,0,0,1,0,7.8l-35,34.9a19.2,19.2,0,0,1-3.3,22.4,19.1,19.1,0,0,1-22.3,3.3l-19.1,19,1.1.9h.1a42,42,0,0,0,12.9,6.8,52.1,52.1,0,0,0,14.9,2.2l4.2-.2h.2a41.4,41.4,0,0,0,15.3-4.7A41.8,41.8,0,0,0,691,410a45.3,45.3,0,0,0,11-29.3,43.7,43.7,0,0,0-1.7-11.8A5.6,5.6,0,0,1,704,362a5.7,5.7,0,0,1,6.9,3.8A54.7,54.7,0,0,1,713,380.7ZM641.4,388a19.2,19.2,0,0,1-2.2-8.9,18.9,18.9,0,0,1,18.9-19,17.9,17.9,0,0,1,8.9,2.3l16.9-16.9a45.5,45.5,0,0,0-26.2-8.3,44.2,44.2,0,0,0-18.5,3.9h.1l-2.4-4.9,2.2,5a46.1,46.1,0,0,0-13.7,10.8,56.8,56.8,0,0,0-9.4,15.2v-.2l-5.2-1.8,5.1,2.1h0a43.9,43.9,0,0,0-2.3,13.8,43.4,43.4,0,0,0,8.8,26Zm-15.8-61.5a37.4,37.4,0,0,1,5.2-2.8,63.3,63.3,0,0,1,54.2-.2,5.4,5.4,0,0,0,7.3-2.7,5.5,5.5,0,0,0-2.6-7.3,75,75,0,0,0-63.7.2,57.6,57.6,0,0,0-6,3.3,5.6,5.6,0,0,0-2,7.6A5.6,5.6,0,0,0,625.6,326.5Zm-21.9,86.8a63.5,63.5,0,0,1,9-76.6,5.5,5.5,0,0,0-7.9-7.7,74.5,74.5,0,0,0-10.5,90,5.4,5.4,0,0,0,7.5,1.9A5.5,5.5,0,0,0,603.7,413.3ZM721,341.1a5.5,5.5,0,0,0-7.6-1.7,5.4,5.4,0,0,0-1.7,7.6,63.3,63.3,0,0,1-85.9,88.3,5.5,5.5,0,0,0-5.6,9.5A74.4,74.4,0,0,0,721,341.1Zm-76.3-44a19,19,0,0,1,26.8-26.8,19,19,0,1,1-26.8,26.8Zm5.5-13.4a7.9,7.9,0,1,0,15.8,0,7.7,7.7,0,0,0-2.3-5.6,8,8,0,0,0-11.2,0A7.7,7.7,0,0,0,650.2,283.7Z" transform="translate(-583.8 -264.8)"/>
    </g>
  </g>
</svg>
